# xmcd
#
# Track frame offsets: 
#        150
#        12114
#        23695
#        38901
#        52049
#        63566
#        75880
#        88360
#        103925
#        116073
#        126164
#        139062
#        148828
#        162795
#        171401
#        182909
#        190810
#        207931
#        219033
#
# Disc length: 3087 seconds
#
# Revision: 2
# Processed by: cddbd v1.5.2PL0 Copyright (c) Steve Scherf et al.
# Submitted via: ExactAudioCopyFreeDBPlugin 1.0
#
DISCID=100c0d13
DTITLE=Various Artist - Soul Sister Blues Brother
DYEAR=2004
DGENRE=Soul
TTITLE0=Sam and Dave - Soul Sister Brown Sugar
TTITLE1=Percy Sledge - Sittin' On The Dock Of The Bay
TTITLE2=Mary Wells - My Guy
TTITLE3=Sam and Dave - Soul Man
TTITLE4=Martha Reeves and The Vandellas - Dancing In The Street
TTITLE5=Lee Dorsey - Working In A Coalmine
TTITLE6=Carla Thomas - B-A-B-Y
TTITLE7=Eddie Floyd - Knock On Wood
TTITLE8=Irma Thomas - Ruler Of My Heart
TTITLE9=Betty Everett - It's In His Kiss
TTITLE10=The Temptations - My Girl
TTITLE11=Gladys Knight and The Pips - Operator
TTITLE12=Aaron Neville - Tell It Like It Is
TTITLE13=The Drifters - Saturday Night At The Movies
TTITLE14=Lee Dorsey - Holy Cow
TTITLE15=The Supremes - Baby Love
TTITLE16=James Brown - Please, Please, Please
TTITLE17=Tina Turner - Soul Deep
TTITLE18=Percy Sledge - When A Man Loves A Woman
EXTD=
EXTT0=
EXTT1=
EXTT2=
EXTT3=
EXTT4=
EXTT5=
EXTT6=
EXTT7=
EXTT8=
EXTT9=
EXTT10=
EXTT11=
EXTT12=
EXTT13=
EXTT14=
EXTT15=
EXTT16=
EXTT17=
EXTT18=
PLAYORDER=
